<svg xmlns="http://www.w3.org/2000/svg" viewBox="0 0 364.47 145.85"><defs><style>.cls-1{fill:none;}.cls-2{fill:#317d3d;}.cls-3{fill:#ee3a39;}.cls-4{fill:#64c7cd;}.cls-5{fill:#369;}.cls-6{fill:#8a8a8a;}</style></defs><title>logo-oma-mobile_1</title><g id="Layer_2" data-name="Layer 2"><g id="Layer_1-2" data-name="Layer 1"><path class="cls-1" d="M29.46,57.07a46.65,46.65,0,0,0-.06,31.74h0a46.52,46.52,0,0,0,20.37,24.41l-1.9,3.29h0l1.9-3.29a46.48,46.48,0,0,0,31.35,5.59h0A46.48,46.48,0,1,0,29.46,57.07l-3.62-1.32h0Z"/><path class="cls-1" d="M244.81,128.53a1.47,1.47,0,0,0-.69-1.29,3,3,0,0,0-1.68-.47,2.92,2.92,0,0,0-1.64.47,1.47,1.47,0,0,0-.69,1.29v.71h4C244.59,129.24,244.81,129,244.81,128.53Z"/><path class="cls-1" d="M327.87,75.43A36.86,36.86,0,0,0,319.92,77a14.69,14.69,0,0,0-5.76,3.32,7.67,7.67,0,0,0-2.27,5.76A6.94,6.94,0,0,0,313,90a8.18,8.18,0,0,0,2.67,2.6,11.33,11.33,0,0,0,3.74,1.38,21.36,21.36,0,0,0,4.05.4q8.11,0,12.42-4.46t4.3-12.09V75h-3.41C333.8,75,330.85,75.17,327.87,75.43Z"/><path class="cls-2" d="M275.24,38a25.79,25.79,0,0,0-9-7.79,29.14,29.14,0,0,0-13.88-3q-9.09,0-15.42,3.74A30.71,30.71,0,0,0,226.56,41a24.51,24.51,0,0,0-9.5-10.23,32.12,32.12,0,0,0-23.2-2.43,29.6,29.6,0,0,0-6.9,3,23.32,23.32,0,0,0-5.28,4.3,28.85,28.85,0,0,0-3.65,5h-.32V29.43H151.9v80.82h26.78V66.43a21.12,21.12,0,0,1,3.49-12.34,11.28,11.28,0,0,1,9.82-5q6,0,8.76,4.06t2.76,11v46.09h26.62V66.59a26.4,26.4,0,0,1,.81-6.57,17.12,17.12,0,0,1,2.51-5.6,13.42,13.42,0,0,1,4.22-3.9,11.66,11.66,0,0,1,5.93-1.46,10.68,10.68,0,0,1,5.76,1.38,10.35,10.35,0,0,1,3.49,3.65,15.76,15.76,0,0,1,1.78,5.44,42.48,42.48,0,0,1,.49,6.57v44.15h26.62v-50a45.84,45.84,0,0,0-1.55-11.6A32.19,32.19,0,0,0,275.24,38Z"/><path class="cls-2" d="M362.44,50.44A33.28,33.28,0,0,0,356,37.13a25.8,25.8,0,0,0-11.44-7.79,52,52,0,0,0-17.28-2.51,57.09,57.09,0,0,0-19.4,3.41,46.6,46.6,0,0,0-16.63,10.22l13.47,14.45a34.94,34.94,0,0,1,9-5.85,25.84,25.84,0,0,1,10.95-2.43,18.24,18.24,0,0,1,10.39,2.84q4.22,2.84,4.22,8.84v1.3a172,172,0,0,0-18,1,64.87,64.87,0,0,0-16.79,3.89,31.47,31.47,0,0,0-12.34,8.28q-4.79,5.35-4.79,14.12a24.05,24.05,0,0,0,2.76,12,22.91,22.91,0,0,0,7.06,7.79,29.48,29.48,0,0,0,9.5,4.21,41.16,41.16,0,0,0,10.06,1.3,33.16,33.16,0,0,0,13.55-2.76,19.93,19.93,0,0,0,9.33-7.79h.49v8.61h24.34V69.51A78.83,78.83,0,0,0,362.44,50.44ZM340.13,77.79q0,7.62-4.3,12.09t-12.42,4.46a21.36,21.36,0,0,1-4.05-.4,11.33,11.33,0,0,1-3.74-1.38A8.18,8.18,0,0,1,313,90a6.94,6.94,0,0,1-1.06-3.9,7.67,7.67,0,0,1,2.27-5.76A14.69,14.69,0,0,1,319.92,77a36.86,36.86,0,0,1,7.95-1.55c3-.26,5.93-.4,8.85-.4h3.41Z"/><path class="cls-1" d="M29.46,57.07a46.65,46.65,0,0,0-.06,31.74h0a46.52,46.52,0,0,0,20.37,24.41l-1.9,3.29h0l1.9-3.29a46.48,46.48,0,0,0,31.35,5.59h0A46.48,46.48,0,1,0,29.46,57.07l-3.62-1.32h0Z"/><path class="cls-3" d="M47.87,116.51l1.9-3.29A46.52,46.52,0,0,1,29.4,88.81v0l-3.22,1.15-.24.09-.14,0h0l-16,5.82L4.58,97.78h0A70,70,0,0,0,36.6,136l2.77-4.78h0Z"/><path class="cls-2" d="M98,4.42A72.86,72.86,0,0,0,4.59,48l5.25,1.91h0l19.62,7.21a46.5,46.5,0,1,1,51.66,61.74l.66,3.74c-.17-2.48-.39-3.73-.66-3.74s-.46.77-.74,2.34l.22,1.62q.53,3.41,1,6.81.5,4.11,1,8.22l.53,1.28c.85,1.86,1.71,3.71,2.56,5.56C112.08,140,132.34,123,141.51,97.82A72.85,72.85,0,0,0,98,4.42Z"/><polyline class="cls-2" points="85.45 144.64 85.2 144.23 85.5 144.23 85.69 144.64"/><path class="cls-4" d="M29.4,88.81a46.65,46.65,0,0,1,.06-31.74L9.84,49.86,4.59,48a70,70,0,0,0,0,49.83l5.21-1.89Z"/><path class="cls-5" d="M81.8,122.55h0l-.66-3.74h0a46.48,46.48,0,0,1-31.35-5.59l-1.9,3.29h0l-8.48,14.69L36.6,136a70,70,0,0,0,49.08,8.67l-1-5.43L83,129.62Z"/><path class="cls-6" d="M152,137.22V115.7a1.29,1.29,0,0,1,.71-1.12,3.43,3.43,0,0,1,1.8-.43,3.67,3.67,0,0,1,1.87.43,1.28,1.28,0,0,1,.74,1.12v9.72a4.82,4.82,0,0,1,1.67-1.79,4.41,4.41,0,0,1,2.52-.73,5.23,5.23,0,0,1,4.13,2,7.38,7.38,0,0,1,1.71,4.89v2.31a7.51,7.51,0,0,1-1.73,4.88,5.09,5.09,0,0,1-4,2.11,5.34,5.34,0,0,1-2.81-.78,4.57,4.57,0,0,1-1.81-1.88v.74a1.39,1.39,0,0,1-.68,1.09,2.56,2.56,0,0,1-1.6.5,3.15,3.15,0,0,1-1.78-.48A1.34,1.34,0,0,1,152,137.22Zm5.12-4.67a2.12,2.12,0,0,0,.79,1.31,2.45,2.45,0,0,0,1.75.78,2.21,2.21,0,0,0,1.67-.76,2.54,2.54,0,0,0,.71-1.75v-2.29a2.41,2.41,0,0,0-.71-1.7,2.28,2.28,0,0,0-1.7-.76,2.56,2.56,0,0,0-1.74.69,2.28,2.28,0,0,0-.77,1.77Z"/><path class="cls-6" d="M169.52,137.22V124.64a1.29,1.29,0,0,1,.71-1.12,3.47,3.47,0,0,1,1.8-.43,2.9,2.9,0,0,1,1.62.44,1.31,1.31,0,0,1,.66,1.13v1.23a5.55,5.55,0,0,1,1.63-2.1,3.64,3.64,0,0,1,2.29-.89h1a1.61,1.61,0,0,1,1.27.66,2.41,2.41,0,0,1,.54,1.56,2.46,2.46,0,0,1-.54,1.6,1.61,1.61,0,0,1-1.27.66h-1a3.19,3.19,0,0,0-2.51,1.37,5.53,5.53,0,0,0-1.08,3.54v4.93a1.36,1.36,0,0,1-.78,1.09,3.34,3.34,0,0,1-1.83.49,3.13,3.13,0,0,1-1.78-.48A1.32,1.32,0,0,1,169.52,137.22Z"/><path class="cls-6" d="M181.7,132.14v-2.31a6.42,6.42,0,0,1,2.21-4.87,7.44,7.44,0,0,1,5.28-2.06,7.61,7.61,0,0,1,5.28,2,6.41,6.41,0,0,1,2.24,4.89v2.31a6.5,6.5,0,0,1-2.26,4.88,7.6,7.6,0,0,1-10.51,0A6.55,6.55,0,0,1,181.7,132.14Zm5.11,0a2.53,2.53,0,0,0,.7,1.75,2.17,2.17,0,0,0,1.68.76,2.23,2.23,0,0,0,1.7-.76,2.54,2.54,0,0,0,.71-1.75v-2.29a2.35,2.35,0,0,0-.73-1.7,2.23,2.23,0,0,0-3.35,0,2.41,2.41,0,0,0-.71,1.7Z"/><path class="cls-6" d="M197.67,124.94c0-.55.38-1,1.14-1.43a4.66,4.66,0,0,1,2.23-.61c.77,0,1.24.26,1.41.79l2.94,8.38,2.11-7.1c.2-.66.76-1,1.69-1s1.48.33,1.68,1l2.11,7.1,2.94-8.38c.17-.53.64-.79,1.38-.79a4.68,4.68,0,0,1,2.23.62c.76.42,1.14.92,1.14,1.49a1.39,1.39,0,0,1-.13.63l-5.08,12.7c-.25.59-.91.89-2,.89s-1.9-.3-2.12-.89l-2.17-5.74L207,138.34c-.22.59-.94.89-2.15.89-1.05,0-1.7-.3-1.94-.89l-5.09-12.7A2.05,2.05,0,0,1,197.67,124.94Z"/><path class="cls-6" d="M221.46,136.1a2.73,2.73,0,0,1,.5-1.47,1.41,1.41,0,0,1,1.19-.78,2.09,2.09,0,0,1,1,.33,13,13,0,0,0,1.45.66,5.72,5.72,0,0,0,2,.33c1.36,0,2.05-.35,2.05-1,0-.39-.27-.7-.8-.94a9.13,9.13,0,0,0-1.93-.62,18.2,18.2,0,0,1-2.27-.67,4.38,4.38,0,0,1-1.93-1.36,3.7,3.7,0,0,1-.8-2.45,5,5,0,0,1,1.49-3.67c1-1,2.56-1.52,4.72-1.52a10.54,10.54,0,0,1,3.91.67c1.13.45,1.7,1,1.7,1.7a3.14,3.14,0,0,1-.53,1.54,1.53,1.53,0,0,1-1.32.87,6.74,6.74,0,0,1-1.52-.41,6.55,6.55,0,0,0-2.18-.41,2.67,2.67,0,0,0-1.4.3.85.85,0,0,0-.48.71c0,.32.27.57.81.76a19.4,19.4,0,0,0,1.95.56,18,18,0,0,1,2.28.7,4.36,4.36,0,0,1,1.94,1.46,4.06,4.06,0,0,1,.81,2.58,4.67,4.67,0,0,1-1.67,3.82,7.16,7.16,0,0,1-4.7,1.38,9.88,9.88,0,0,1-4.42-.91C222.08,137.62,221.46,136.91,221.46,136.1Z"/><path class="cls-6" d="M235.82,132.14v-2.41a6.29,6.29,0,0,1,2.22-4.82,7.75,7.75,0,0,1,5.37-2,7.47,7.47,0,0,1,5,1.77,5.65,5.65,0,0,1,2.08,4.51,4.77,4.77,0,0,1-.26,1.71,1.69,1.69,0,0,1-.79.92,3.83,3.83,0,0,1-1,.34,6.29,6.29,0,0,1-1.17.08h-6.37v.2a2.42,2.42,0,0,0,.93,2,3.74,3.74,0,0,0,2.44.75,5.53,5.53,0,0,0,2.42-.62,5.2,5.2,0,0,1,1.7-.63,1.61,1.61,0,0,1,1.36.77,2.66,2.66,0,0,1,.52,1.47c0,.68-.59,1.35-1.76,2a9,9,0,0,1-4.37,1,9.11,9.11,0,0,1-6-1.93A6.25,6.25,0,0,1,235.82,132.14Zm5.11-2.78H245a.62.62,0,0,0,.7-.71,1.52,1.52,0,0,0-.71-1.32,3,3,0,0,0-1.7-.47,2.9,2.9,0,0,0-1.67.47,1.52,1.52,0,0,0-.71,1.32Z"/><path class="cls-6" d="M252.78,137.22V124.64a1.27,1.27,0,0,1,.71-1.12,3.47,3.47,0,0,1,1.8-.43,2.87,2.87,0,0,1,1.61.44,1.29,1.29,0,0,1,.66,1.13v1.23a5.68,5.68,0,0,1,1.64-2.1,3.62,3.62,0,0,1,2.29-.89h1a1.63,1.63,0,0,1,1.27.66,2.41,2.41,0,0,1,.54,1.56,2.46,2.46,0,0,1-.54,1.6,1.63,1.63,0,0,1-1.27.66h-1a3.17,3.17,0,0,0-2.51,1.37,5.54,5.54,0,0,0-1.09,3.54v4.93a1.36,1.36,0,0,1-.77,1.09,3.34,3.34,0,0,1-1.83.49,3.19,3.19,0,0,1-1.79-.48A1.32,1.32,0,0,1,252.78,137.22Z"/></g></g></svg>